<?xml version="1.0" encoding="UTF-8"?>
<svg width="15px" height="15px" viewBox="0 0 15 15" version="1.1" xmlns="http://www.w3.org/2000/svg" xmlns:xlink="http://www.w3.org/1999/xlink">
    <!-- Generator: Sketch 62 (91390) - https://sketch.com -->
    <title>wordpress-seeklogo.com</title>
    <desc>Created with Sketch.</desc>
    <g id="Page-1" stroke="none" stroke-width="1" fill="none" fill-rule="evenodd">
        <g id="wordpress-seeklogo.com" fill="#7347C1" fill-rule="nonzero">
            <path d="M1.06195122,7.47073172 C1.06195122,10.007561 2.53621951,12.199878 4.67402439,13.2387805 L1.61682927,4.86243902 C1.26121951,5.65951219 1.06195122,6.54158537 1.06195122,7.47073172 L1.06195122,7.47073172 Z M11.797561,7.14731707 C11.797561,6.35524389 11.5130488,5.80670732 11.2690244,5.3797561 C10.9441464,4.85182927 10.6396341,4.4047561 10.6396341,3.87682927 C10.6396341,3.28768293 11.0864634,2.73926829 11.7158537,2.73926829 C11.7442683,2.73926829 11.7712195,2.74280488 11.7989024,2.74439024 C10.6586585,1.6997561 9.13951219,1.06195122 7.47097559,1.06195122 C5.23195122,1.06195122 3.26207317,2.21073171 2.11609756,3.95073171 C2.26646341,3.9552439 2.40817073,3.95841463 2.52853659,3.95841463 C3.19890244,3.95841463 4.23658536,3.87707317 4.23658536,3.87707317 C4.58207317,3.85670732 4.62280488,4.36414634 4.27768293,4.405 C4.27768293,4.405 3.9304878,4.44585366 3.54414634,4.46609756 L5.87804877,11.4081707 L7.28060977,7.2017073 L6.28207318,4.46585366 C5.93695119,4.44560975 5.61,4.4047561 5.61,4.4047561 C5.26463415,4.38451219 5.30512195,3.85646341 5.65048781,3.87682927 C5.65048781,3.87682927 6.70890246,3.95817073 7.33865854,3.95817073 C8.00890242,3.95817073 9.0467073,3.87682927 9.0467073,3.87682927 C9.39243902,3.85646341 9.43304877,4.36390244 9.0878049,4.4047561 C9.0878049,4.4047561 8.73987803,4.44560975 8.35426828,4.46585366 L10.6703658,11.3553659 L11.3096341,9.21914637 C11.5867073,8.33268293 11.797561,7.69597559 11.797561,7.14731707 L11.797561,7.14731707 Z M7.58341465,8.03134148 L5.6604878,13.6190244 C6.23463416,13.7878049 6.8418293,13.880122 7.47097559,13.880122 C8.21731705,13.880122 8.93304879,13.7510975 9.59926828,13.5168293 C9.58207318,13.4893903 9.5664634,13.4602439 9.55365855,13.4285366 L7.58341465,8.03134148 L7.58341465,8.03134148 Z M13.0946341,4.39585366 C13.1221951,4.6 13.1378049,4.81914634 13.1378049,5.05487805 C13.1378049,5.7052439 13.0163415,6.43634145 12.6504878,7.35048779 L10.6928049,13.0106098 C12.5981707,11.8995122 13.8797562,9.83524389 13.8797562,7.47085365 C13.879878,6.35658539 13.5952439,5.30878049 13.0946341,4.39585366 L13.0946341,4.39585366 Z M7.47097559,0 C3.35158536,0 0,3.35134146 0,7.47073172 C0,11.5906097 3.35158536,14.9418293 7.47097559,14.9418293 C11.5902439,14.9418293 14.9423171,11.5906097 14.9423171,7.47073172 C14.9423171,3.35134146 11.5902439,0 7.47097559,0 L7.47097559,0 Z M7.47097559,14.5993903 C3.5404878,14.5993903 0.342560975,11.4014634 0.342560975,7.47073172 C0.342560975,3.5402439 3.54036585,0.342560975 7.47097559,0.342560975 C11.4013414,0.342560975 14.5990244,3.5402439 14.5990244,7.47073172 C14.5990244,11.4014634 11.4013414,14.5993903 7.47097559,14.5993903 L7.47097559,14.5993903 Z" id="Shape"></path>
        </g>
    </g>
</svg>